<?xml version="1.0" encoding="UTF-8"?><svg id="Layer_1" xmlns="http://www.w3.org/2000/svg" viewBox="0 0 383.07 225.63"><defs><style>.cls-1{fill:#c724b1;}.cls-1,.cls-2{stroke-width:0px;}.cls-2{fill:#fff;}</style></defs><polygon class="cls-1" points="231.23 0 179.32 222.59 214.09 222.59 216.01 216.12 266.41 0 231.23 0"/><path class="cls-2" d="m161.73,0h-6.74v153.9c-.03,6.79-.82,13.16-2.35,19.14l14.42,49.55h.67l22.77-97.64L161.73,0Z"/><polygon class="cls-1" points="219.34 0 167.43 222.59 202.2 222.59 204.12 216.12 254.52 0 219.34 0"/><polygon class="cls-1" points="347.88 0 295.97 222.59 330.74 222.59 332.66 216.12 383.07 0 347.88 0"/><polygon class="cls-1" points="336 0 284.08 222.59 318.85 222.59 320.78 216.12 371.18 0 336 0"/><path class="cls-1" d="m102.28,0h-.33v153.9c-.07,6.45-1.03,11.85-2.88,16.19s-4.55,7.63-8.1,9.84c-3.55,2.21-7.9,3.32-13.04,3.32s-9.17-1.01-12.72-3.04c-3.55-2.03-6.32-5.05-8.31-9.08-1.99-4.02-3.1-8.89-3.31-14.62H0c-.07,15.94,3.24,29.02,9.94,39.24,6.7,10.22,15.72,17.75,27.06,22.61,11.34,4.85,23.97,7.28,37.88,7.28,15.72,0,29.58-2.97,41.57-8.91,11.99-5.94,21.39-14.29,28.2-25.05,3.61-5.7,6.26-11.91,7.97-18.63,1.53-5.97,2.32-12.35,2.35-19.14V0h-52.71Z"/><polygon class="cls-2" points="266.75 0 266.19 0 244.71 92.1 283.48 222.59 284.12 222.59 303.43 139.79 266.75 0"/></svg>